<svg width="141" height="141" viewBox="0 0 141 141" fill="none" xmlns="http://www.w3.org/2000/svg">
<rect width="141" height="141" rx="30" fill="white"/>
<path fill-rule="evenodd" clip-rule="evenodd" d="M36 18C25.5066 18 17 26.5066 17 37V105C17 115.493 25.5066 124 36 124H65.3406V81.3574C59.6142 88.2915 52.1318 95.7399 42.5608 102.505L35.7267 92.7504C35.7267 92.7504 53.1567 84.1381 65.3406 62.4997V60.8249H38.0046V48.4093H101.79V60.8249H78.8745C77.8008 62.9595 76.3435 65.6402 74.4527 68.688V77.675L79.7686 71.4666L104.068 92.7504L97.2335 102.505C92.5091 95.8843 81.7881 82.7748 74.4527 79.9013V124H104C114.493 124 123 115.493 123 105V37C123 26.5066 114.493 18 104 18H36Z" fill="#ED254E"/>
</svg>
