<svg width="422" height="106" viewBox="0 0 422 106" fill="none" xmlns="http://www.w3.org/2000/svg">
<path fill-rule="evenodd" clip-rule="evenodd" d="M19 0C8.50659 0 0 8.50659 0 19V87C0 97.4934 8.50659 106 19 106H48.3406V63.3574C42.6142 70.2915 35.1318 77.7399 25.5608 84.5055L18.7267 74.7504C18.7267 74.7504 36.1567 66.1381 48.3406 44.4997V42.8249H21.0046V30.4093H84.7895V42.8249H61.8745C60.8008 44.9595 59.3435 47.6402 57.4527 50.688V59.675L62.7686 53.4666L87.0676 74.7504L80.2335 84.5055C75.5091 77.8843 64.7881 64.7748 57.4527 61.9013V106H87C97.4934 106 106 97.4934 106 87V19C106 8.50659 97.4934 0 87 0H19Z" fill="#ED254E"/>
<path d="M163.367 57.082H143.117V78H132.57V26.8125H165.898V35.3555H143.117V48.5742H163.367V57.082ZM210.758 26.8125V60.5273C210.758 66.1289 209 70.5586 205.484 73.8164C201.992 77.0742 197.211 78.7031 191.141 78.7031C185.164 78.7031 180.418 77.1211 176.902 73.957C173.387 70.793 171.594 66.4453 171.523 60.9141V26.8125H182.07V60.5977C182.07 63.9492 182.867 66.3984 184.461 67.9453C186.078 69.4688 188.305 70.2305 191.141 70.2305C197.07 70.2305 200.082 67.1133 200.176 60.8789V26.8125H210.758ZM235.438 57.4688L229.953 63.375V78H219.406V26.8125H229.953V50.0156L234.594 43.6523L247.637 26.8125H260.609L242.434 49.5586L261.137 78H248.586L235.438 57.4688ZM276.324 78H265.777V26.8125H276.324V78ZM326.633 71.5312C324.734 73.8047 322.051 75.5742 318.582 76.8398C315.113 78.082 311.27 78.7031 307.051 78.7031C302.621 78.7031 298.73 77.7422 295.379 75.8203C292.051 73.875 289.473 71.0625 287.645 67.3828C285.84 63.7031 284.914 59.3789 284.867 54.4102V50.9297C284.867 45.8203 285.723 41.4023 287.434 37.6758C289.168 33.9258 291.652 31.0664 294.887 29.0977C298.145 27.1055 301.953 26.1094 306.312 26.1094C312.383 26.1094 317.129 27.5625 320.551 30.4688C323.973 33.3516 326 37.5586 326.633 43.0898H316.367C315.898 40.1602 314.855 38.0156 313.238 36.6562C311.645 35.2969 309.441 34.6172 306.629 34.6172C303.043 34.6172 300.312 35.9648 298.438 38.6602C296.562 41.3555 295.613 45.3633 295.59 50.6836V53.9531C295.59 59.3203 296.609 63.375 298.648 66.1172C300.688 68.8594 303.676 70.2305 307.613 70.2305C311.574 70.2305 314.398 69.3867 316.086 67.6992V58.875H306.488V51.1055H326.633V71.5312ZM366.008 55.8164H345.758V69.5273H369.523V78H335.211V26.8125H369.453V35.3555H345.758V47.5547H366.008V55.8164ZM417.336 78H406.789L386.258 44.3203V78H375.711V26.8125H386.258L406.824 60.5625V26.8125H417.336V78Z" fill="#ED254E"/>
</svg>
